<svg width="219" height="42" viewBox="0 0 219 42" fill="none" xmlns="http://www.w3.org/2000/svg">
<path d="M0 14C0 6.268 6.26801 0 14 0H27.994C35.726 0 41.994 6.26801 41.994 14V27.994C41.994 35.726 35.726 41.994 27.994 41.994H14C6.268 41.994 0 35.726 0 27.994V14Z" fill="url(#paint0_linear_497_10)"/>
<circle cx="21.997" cy="20.9971" r="14.5" fill="url(#paint1_linear_497_10)"/>
<circle cx="19.997" cy="20.9971" r="14.5" fill="url(#paint2_linear_497_10)"/>
<path d="M19.4951 12.9951C20.1337 12.9951 20.6556 13.417 21.0235 14.0234L23.0088 17.2227L25.2344 17.5957C26.0363 17.7304 26.712 18.1237 26.9317 18.8125C27.124 19.4158 26.9008 20.0385 26.4551 20.5723L26.25 20.7959L24.5205 22.5391C24.4525 22.6077 24.3759 22.7369 24.3282 22.9053C24.2806 23.0726 24.2765 23.2248 24.2979 23.3223V23.3232L24.793 25.4785C24.9985 26.3773 24.9306 27.2709 24.2959 27.7373C23.662 28.203 22.7957 27.9969 22.0069 27.5273L19.92 26.2832C19.832 26.2307 19.6812 26.1875 19.4991 26.1875C19.3182 26.1875 19.164 26.2298 19.0703 26.2842L19.0684 26.2852L16.9864 27.5273C16.1985 27.9985 15.3332 28.2005 14.6992 27.7344C14.0651 27.2679 13.9931 26.3764 14.1992 25.4785L14.6944 23.3232V23.3223C14.7157 23.2248 14.7116 23.0727 14.6641 22.9053C14.6162 22.7368 14.5398 22.6077 14.4717 22.5391L12.7412 20.7949C12.1672 20.2164 11.8455 19.5021 12.0635 18.8135C12.2819 18.1242 12.9563 17.7305 13.7588 17.5957L15.9825 17.2227C16.0647 17.2084 16.1939 17.1545 16.3262 17.0557C16.459 16.9565 16.5472 16.8483 16.584 16.7725L16.586 16.7686L17.8145 14.293C18.1872 13.5457 18.7662 12.9953 19.4951 12.9951Z" fill="#AD5C27"/>
<path d="M89.202 3.37707H96.546V36.4971H90.834V12.9771L80.562 36.4971H76.53L66.306 13.0731V36.4971H60.594V3.37707H68.034L78.642 27.7131L89.202 3.37707ZM127.214 31.3131H127.646V36.4971H126.11C122.654 36.4971 120.494 35.0571 119.822 32.3691C117.854 35.2491 114.734 37.0731 110.99 37.0731C104.078 37.0731 98.9419 31.5531 98.9419 24.2571C98.9419 16.9611 104.078 11.4411 110.99 11.4411C114.59 11.4411 117.614 13.1211 119.582 15.8091V12.0171H124.958V29.0571C124.958 30.4491 125.774 31.3131 127.214 31.3131ZM112.046 31.8891C116.366 31.8891 119.582 28.5771 119.582 24.2571C119.582 19.9371 116.366 16.6251 112.046 16.6251C107.678 16.6251 104.462 19.9371 104.462 24.2571C104.462 28.5771 107.678 31.8891 112.046 31.8891ZM140.403 37.0731C132.915 37.0731 127.299 31.5531 127.299 24.2571C127.299 16.9611 132.915 11.4411 140.403 11.4411C146.787 11.4411 151.827 15.4731 153.123 21.2331H147.411C146.259 18.4971 143.619 16.6251 140.403 16.6251C136.083 16.6251 132.819 19.9371 132.819 24.2571C132.819 28.5771 136.083 31.8891 140.403 31.8891C143.619 31.8891 146.259 30.0171 147.411 27.2811H153.123C151.827 33.0411 146.787 37.0731 140.403 37.0731ZM166.466 37.0731C158.978 37.0731 153.362 31.5531 153.362 24.2571C153.362 16.9611 158.978 11.4411 166.466 11.4411C173.906 11.4411 179.57 16.9611 179.57 24.2571C179.57 31.5531 173.906 37.0731 166.466 37.0731ZM166.466 31.8891C170.786 31.8891 174.002 28.5771 174.002 24.2571C174.002 19.9371 170.786 16.6251 166.466 16.6251C162.146 16.6251 158.882 19.9371 158.882 24.2571C158.882 28.5771 162.146 31.8891 166.466 31.8891ZM193.628 12.0171C195.116 18.4491 203.612 18.4971 203.612 27.1851C203.612 33.0891 199.82 37.0731 193.58 37.0731C189.5 37.0731 185.948 35.3931 183.74 32.7531L182.06 36.4971H176.492L187.484 12.0171H193.628ZM192.572 31.8891C195.836 31.8891 198.092 30.0171 198.092 27.0891C198.092 22.9611 192.908 21.9051 190.46 17.4891L185.66 28.3371C187.052 30.4491 189.692 31.8891 192.572 31.8891ZM217.055 16.9131H211.007V28.0971C211.007 30.2571 212.351 31.5531 214.607 31.5531H217.055V36.4971H213.839C208.511 36.4971 205.631 33.8091 205.631 28.9611V16.9131H201.503V12.0171H203.999C205.247 12.0171 205.919 11.3451 205.919 10.0971V5.39307H211.007V12.0171H217.055V16.9131Z" fill="white"/>
<defs>
<linearGradient id="paint0_linear_497_10" x1="21" y1="18" x2="20.997" y2="41.994" gradientUnits="userSpaceOnUse">
<stop stop-color="#298DFF"/>
<stop offset="1" stop-color="#FCFCFC"/>
</linearGradient>
<linearGradient id="paint1_linear_497_10" x1="7.49701" y1="20.9971" x2="36.497" y2="20.9971" gradientUnits="userSpaceOnUse">
<stop stop-color="#FF8929"/>
<stop offset="1" stop-color="#AD5C27"/>
</linearGradient>
<linearGradient id="paint2_linear_497_10" x1="5.49701" y1="20.9971" x2="34.497" y2="20.9971" gradientUnits="userSpaceOnUse">
<stop stop-color="#FF8929"/>
<stop offset="1" stop-color="#FCFCFC"/>
</linearGradient>
</defs>
</svg>
