<svg width="157" height="34" viewBox="0 0 157 34" fill="none" xmlns="http://www.w3.org/2000/svg">
<path d="M28.608 0.000114441H35.952V33.1201H30.24V9.60012L19.968 33.1201H15.936L5.71202 9.69612V33.1201H2.45571e-05V0.000114441H7.44002L18.048 24.3361L28.608 0.000114441ZM66.6199 27.9361H67.0519V33.1201H65.5159C62.0599 33.1201 59.8999 31.6801 59.2279 28.9921C57.2599 31.8721 54.1399 33.6961 50.3959 33.6961C43.4839 33.6961 38.3479 28.1761 38.3479 20.8801C38.3479 13.5841 43.4839 8.06412 50.3959 8.06412C53.9959 8.06412 57.0199 9.74412 58.9879 12.4321V8.64011H64.3639V25.6801C64.3639 27.0721 65.1799 27.9361 66.6199 27.9361ZM51.4519 28.5121C55.7719 28.5121 58.9879 25.2001 58.9879 20.8801C58.9879 16.5601 55.7719 13.2481 51.4519 13.2481C47.0839 13.2481 43.8679 16.5601 43.8679 20.8801C43.8679 25.2001 47.0839 28.5121 51.4519 28.5121ZM79.809 33.6961C72.321 33.6961 66.705 28.1761 66.705 20.8801C66.705 13.5841 72.321 8.06412 79.809 8.06412C86.193 8.06412 91.233 12.0961 92.529 17.8561H86.817C85.665 15.1201 83.025 13.2481 79.809 13.2481C75.489 13.2481 72.225 16.5601 72.225 20.8801C72.225 25.2001 75.489 28.5121 79.809 28.5121C83.025 28.5121 85.665 26.6401 86.817 23.9041H92.529C91.233 29.6641 86.193 33.6961 79.809 33.6961ZM105.872 33.6961C98.3835 33.6961 92.7675 28.1761 92.7675 20.8801C92.7675 13.5841 98.3835 8.06412 105.872 8.06412C113.312 8.06412 118.976 13.5841 118.976 20.8801C118.976 28.1761 113.312 33.6961 105.872 33.6961ZM105.872 28.5121C110.192 28.5121 113.408 25.2001 113.408 20.8801C113.408 16.5601 110.192 13.2481 105.872 13.2481C101.552 13.2481 98.2875 16.5601 98.2875 20.8801C98.2875 25.2001 101.552 28.5121 105.872 28.5121ZM133.034 8.64011C134.522 15.0721 143.018 15.1201 143.018 23.8081C143.018 29.7121 139.226 33.6961 132.986 33.6961C128.906 33.6961 125.354 32.0161 123.146 29.3761L121.466 33.1201H115.898L126.89 8.64011H133.034ZM131.978 28.5121C135.242 28.5121 137.498 26.6401 137.498 23.7121C137.498 19.5841 132.314 18.5281 129.866 14.1121L125.066 24.9601C126.458 27.0721 129.098 28.5121 131.978 28.5121ZM156.461 13.5361H150.413V24.7201C150.413 26.8801 151.757 28.1761 154.013 28.1761H156.461V33.1201H153.245C147.917 33.1201 145.037 30.4321 145.037 25.5841V13.5361H140.909V8.64011H143.405C144.653 8.64011 145.325 7.96811 145.325 6.72012V2.01612H150.413V8.64011H156.461V13.5361Z" fill="white"/>
</svg>
