<svg width="42" height="42" viewBox="0 0 42 42" fill="none" xmlns="http://www.w3.org/2000/svg">
<path d="M0 14C0 6.268 6.26801 0 14 0H27.994C35.726 0 41.994 6.26801 41.994 14V27.994C41.994 35.726 35.726 41.994 27.994 41.994H14C6.268 41.994 0 35.726 0 27.994V14Z" fill="url(#paint0_linear_497_137)"/>
<circle cx="21.9969" cy="20.9971" r="14.5" fill="url(#paint1_linear_497_137)"/>
<circle cx="19.9969" cy="20.9971" r="14.5" fill="url(#paint2_linear_497_137)"/>
<path d="M19.4959 12.9951C20.1343 12.9953 20.6564 13.417 21.0242 14.0234L23.0086 17.2227L25.2342 17.5957C26.0361 17.7304 26.7117 18.1236 26.9314 18.8125C27.1513 19.5022 26.8286 20.2173 26.2508 20.7959H26.2498L24.5203 22.5391C24.4523 22.6078 24.3757 22.737 24.3279 22.9053C24.2804 23.0726 24.2763 23.2249 24.2976 23.3223L24.2986 23.3232L24.7928 25.4785C24.9983 26.3773 24.9305 27.2709 24.2957 27.7373C23.6618 28.203 22.7955 27.9969 22.0066 27.5273L19.9207 26.2832C19.8328 26.2307 19.6811 26.1875 19.4988 26.1875C19.3179 26.1875 19.1637 26.2298 19.0701 26.2842L19.0691 26.2852L16.9861 27.5273C16.1983 27.9985 15.333 28.2005 14.699 27.7344C14.065 27.2679 13.9938 26.3764 14.2 25.4785L14.6941 23.3232L14.6951 23.3223C14.7164 23.2249 14.7123 23.0726 14.6648 22.9053C14.6171 22.7371 14.5405 22.6078 14.4725 22.5391L12.742 20.7949C12.1678 20.2164 11.8453 19.5021 12.0633 18.8135C12.2817 18.1242 12.9561 17.7305 13.7586 17.5957L15.9822 17.2227H15.9832C16.0654 17.2084 16.1937 17.1544 16.326 17.0557C16.4587 16.9565 16.5469 16.8483 16.5838 16.7725L16.5857 16.7686L17.8142 14.293C18.187 13.5456 18.7669 12.9951 19.4959 12.9951Z" fill="#AD5C27"/>
<defs>
<linearGradient id="paint0_linear_497_137" x1="21" y1="18" x2="20.997" y2="41.994" gradientUnits="userSpaceOnUse">
<stop stop-color="#298DFF"/>
<stop offset="1" stop-color="#FCFCFC"/>
</linearGradient>
<linearGradient id="paint1_linear_497_137" x1="7.49695" y1="20.9971" x2="36.4969" y2="20.9971" gradientUnits="userSpaceOnUse">
<stop stop-color="#FF8929"/>
<stop offset="1" stop-color="#AD5C27"/>
</linearGradient>
<linearGradient id="paint2_linear_497_137" x1="5.49695" y1="20.9971" x2="34.4969" y2="20.9971" gradientUnits="userSpaceOnUse">
<stop stop-color="#FF8929"/>
<stop offset="1" stop-color="#FCFCFC"/>
</linearGradient>
</defs>
</svg>
